# xmcd
#
# Track frame offsets: 
#        150
#        17933
#        37298
#        56858
#        76253
#        92723
#        110093
#        129466
#        144241
#        162519
#
# Disc length: 2395 seconds
#
# Revision: 0
# Processed by: cddbd v1.5.2PL0 Copyright (c) Steve Scherf et al.
# Submitted via: ExactAudioCopy v0.99pb4
#
DISCID=8c09590a
DTITLE=เอิร์น เดอะสตาร์ - อย่ามองข้ามความเสียใจ
DYEAR=2009
DGENRE=Country
TTITLE0=อย่ามองข้ามความเสียใจ
TTITLE1=เชื่อเธอแต่ไม่ไว้ใจเขา
TTITLE2=ไม่ใช่ที่ชาร์จแบต
TTITLE3=คำว่าจบพูดเบาๆก็เจ็บ
TTITLE4=บอกใจให้รู้สึกดี
TTITLE5=แต่ก่อน ตอนนี้และตลอดไป
TTITLE6=รอยหยิกจากกิ๊กเก่า
TTITLE7=รักคนอื่นไปก่อน
TTITLE8=คิดถึงเธออยากเจอเหลือเกิน
TTITLE9=พรุ่งนี้ค่อยเหงา
EXTD=
EXTT0=
EXTT1=
EXTT2=
EXTT3=
EXTT4=
EXTT5=
EXTT6=
EXTT7=
EXTT8=
EXTT9=
PLAYORDER=
